<svg xmlns="http://www.w3.org/2000/svg" width="14.201" height="14.201" viewBox="0 0 14.201 14.201">
  <path id="Icon_material-phone-bluetooth-speaker" data-name="Icon material-phone-bluetooth-speaker" d="M17.912,14.362a8.963,8.963,0,0,1-2.817-.45.805.805,0,0,0-.8.189l-1.736,1.736a11.87,11.87,0,0,1-5.2-5.2L9.092,8.894a.757.757,0,0,0,.2-.789,8.963,8.963,0,0,1-.45-2.817A.791.791,0,0,0,8.05,4.5H5.289a.791.791,0,0,0-.789.789A13.411,13.411,0,0,0,17.912,18.7a.791.791,0,0,0,.789-.789V15.151A.791.791,0,0,0,17.912,14.362Z" transform="translate(-4.5 -4.5)" fill="#fff"/>
</svg>
